<svg width="163" height="38" viewBox="0 0 163 38" fill="none" xmlns="http://www.w3.org/2000/svg">
<g filter="url(#filter0_d_0_1)">
<path d="M4.2998 22V0.540039H8.28418V10.208C8.97754 9.29004 10.3936 7.57617 12.5322 5.06641C14.6807 2.55664 15.96 1.04785 16.3701 0.540039H21.0723L12.957 10.1934L21.585 22H16.9268L9.9248 12.376L8.28418 13.7529V22H4.2998ZM30.7549 22.3076C28.167 22.3076 26.1504 21.5654 24.7051 20.0811C23.2695 18.5869 22.5518 16.5264 22.5518 13.8994C22.5518 11.3408 23.2305 9.30469 24.5879 7.79102C25.9453 6.27734 27.7959 5.51563 30.1396 5.50586C32.3564 5.50586 34.0752 6.19922 35.2959 7.58594C36.5264 8.97266 37.1416 10.8135 37.1416 13.1084C37.1416 13.2744 37.1367 13.543 37.127 13.9141C37.127 14.2852 37.127 14.5586 37.127 14.7344H26.4189C26.458 16.2383 26.8682 17.4053 27.6494 18.2354C28.4404 19.0557 29.5244 19.4658 30.9014 19.4658C32.6592 19.4658 34.3486 19.0068 35.9697 18.0889L36.5117 20.8135C34.9004 21.8096 32.9814 22.3076 30.7549 22.3076ZM26.4922 12.3174H33.5234C33.5234 11.0088 33.2256 10.0029 32.6299 9.2998C32.0342 8.59668 31.209 8.24512 30.1543 8.24512C29.168 8.24512 28.333 8.58691 27.6494 9.27051C26.9756 9.9541 26.5898 10.9697 26.4922 12.3174ZM44.7295 22L38.3135 5.90137H42.3857C42.542 6.34082 43.0352 7.70801 43.8652 10.0029C44.7051 12.2881 45.2617 13.8457 45.5352 14.6758C46.0918 16.2969 46.4922 17.5225 46.7363 18.3525C46.7363 18.3428 46.8193 18.0254 46.9854 17.4004C47.1514 16.7754 47.3076 16.1895 47.4541 15.6426C47.6104 15.0859 47.708 14.749 47.7471 14.6318C47.7568 14.6123 48.2012 13.2646 49.0801 10.5889C49.9688 7.91309 50.4961 6.35059 50.6621 5.90137H54.7051L48.6113 22H44.7295ZM56.7998 22V5.90137H60.6377V22H56.7998ZM56.7998 3.55762V0.276367H60.6523V3.55762H56.7998ZM64.6514 22V5.90137H67.7422L68.167 7.9375C69.8076 6.31641 71.6289 5.50586 73.6309 5.50586C75.5059 5.50586 76.9072 6.04785 77.835 7.13184C78.7725 8.20605 79.2412 9.76855 79.2412 11.8193V22H75.3887V12.2881C75.3789 10.9893 75.1689 10.0176 74.7588 9.37305C74.3486 8.72852 73.6113 8.40625 72.5469 8.40625C71.7168 8.40625 70.9551 8.62109 70.2617 9.05078C69.5781 9.4707 69.0801 10.0029 68.7676 10.6475C68.582 11.4092 68.4893 12.5811 68.4893 14.1631V22H64.6514Z" fill="black"/>
<path d="M95.4717 22V3.71875H89.2168V0.540039H105.682V3.71875H99.4561V22H95.4717ZM114.178 19.3926C115.477 19.3926 116.453 18.9189 117.107 17.9717C117.762 17.0244 118.089 15.667 118.089 13.8994C118.089 12.1123 117.762 10.75 117.107 9.8125C116.453 8.875 115.467 8.40625 114.148 8.40625C112.85 8.40625 111.868 8.87988 111.204 9.82715C110.55 10.7646 110.223 12.127 110.223 13.9141C110.223 15.6719 110.555 17.0244 111.219 17.9717C111.883 18.9189 112.869 19.3926 114.178 19.3926ZM114.075 22.3076C111.692 22.3076 109.817 21.5361 108.45 19.9932C107.083 18.4502 106.399 16.4189 106.399 13.8994C106.399 11.3018 107.083 9.25586 108.45 7.76172C109.817 6.25781 111.746 5.50586 114.236 5.50586C116.639 5.50586 118.519 6.27246 119.876 7.80566C121.243 9.3291 121.927 11.3604 121.927 13.8994C121.927 16.4678 121.238 18.5137 119.861 20.0371C118.484 21.5508 116.556 22.3076 114.075 22.3076ZM125.062 22V5.90137H128.152L128.577 7.9375C130.218 6.31641 132.039 5.50586 134.041 5.50586C135.916 5.50586 137.317 6.04785 138.245 7.13184C139.183 8.20605 139.651 9.76855 139.651 11.8193V22H135.799V12.2881C135.789 10.9893 135.579 10.0176 135.169 9.37305C134.759 8.72852 134.021 8.40625 132.957 8.40625C132.127 8.40625 131.365 8.62109 130.672 9.05078C129.988 9.4707 129.49 10.0029 129.178 10.6475C128.992 11.4092 128.899 12.5811 128.899 14.1631V22H125.062ZM146.653 29.207L146.434 26.1016H148.382C150.638 26.1016 152.215 25.7988 153.113 25.1934C154.012 24.5977 154.461 23.499 154.461 21.8975C154.461 21.2432 154.432 20.5352 154.373 19.7734C154.119 20.125 153.875 20.418 153.641 20.6523C153.416 20.877 153.128 21.1016 152.776 21.3262C152.435 21.5508 152.02 21.7217 151.531 21.8389C151.053 21.9463 150.506 22 149.891 22C147.762 22 146.009 21.2334 144.632 19.7002C143.265 18.167 142.581 16.1895 142.581 13.7676C142.581 12.4785 142.771 11.3066 143.152 10.252C143.533 9.1875 144.051 8.31348 144.705 7.62988C145.359 6.94629 146.111 6.42383 146.961 6.0625C147.82 5.69141 148.733 5.50586 149.7 5.50586C151.858 5.50586 153.465 6.29199 154.52 7.86426L154.783 5.90137H158.211V20.8574C158.211 21.6582 158.172 22.376 158.094 23.0107C158.016 23.6553 157.879 24.2705 157.684 24.8564C157.488 25.4521 157.229 25.9697 156.907 26.4092C156.595 26.8486 156.199 27.249 155.721 27.6104C155.242 27.9717 154.676 28.2646 154.021 28.4893C153.377 28.7236 152.625 28.8994 151.766 29.0166C150.906 29.1436 149.939 29.207 148.865 29.207H146.653ZM150.506 19.3193C153.152 19.3193 154.49 17.5469 154.52 14.002V13.4453C154.5 11.8535 154.168 10.623 153.523 9.75391C152.879 8.88477 151.937 8.44531 150.696 8.43555C149.29 8.43555 148.226 8.91895 147.503 9.88574C146.78 10.8428 146.419 12.1367 146.419 13.7676C146.419 15.3398 146.78 16.6582 147.503 17.7227C148.235 18.7871 149.236 19.3193 150.506 19.3193Z" fill="#57B7CC"/>
</g>
<defs>
<filter id="filter0_d_0_1" x="0.299805" y="0.276367" width="161.911" height="36.9307" filterUnits="userSpaceOnUse" color-interpolation-filters="sRGB">
<feFlood flood-opacity="0" result="BackgroundImageFix"/>
<feColorMatrix in="SourceAlpha" type="matrix" values="0 0 0 0 0 0 0 0 0 0 0 0 0 0 0 0 0 0 127 0" result="hardAlpha"/>
<feOffset dy="4"/>
<feGaussianBlur stdDeviation="2"/>
<feComposite in2="hardAlpha" operator="out"/>
<feColorMatrix type="matrix" values="0 0 0 0 0 0 0 0 0 0 0 0 0 0 0 0 0 0 0.25 0"/>
<feBlend mode="normal" in2="BackgroundImageFix" result="effect1_dropShadow_0_1"/>
<feBlend mode="normal" in="SourceGraphic" in2="effect1_dropShadow_0_1" result="shape"/>
</filter>
</defs>
</svg>
